<?xml version="1.0" encoding="UTF-8"?>
<svg id="Layer_2" data-name="Layer 2" xmlns="http://www.w3.org/2000/svg" viewBox="0 0 609.64 609.45">
  <defs>
    <style>
      .cls-1 {
        fill: #f7f7f7;
      }
    </style>
  </defs>
  <g id="Layer_1-2" data-name="Layer 1">
    <g>
      <path class="cls-1" d="M513.89,85.56c209.75,199.15,49.68,545.13-236.54,522.87-126.38-9.83-239.01-107.42-268.23-230.15C-61.39,82.02,292.9-124.27,513.89,85.56ZM296.91,22.42C69.58,28.19-59.77,291.25,78.38,474.35c122.68,162.59,372.23,146.4,472.55-30.21,108.54-191.1-35.79-427.26-254.02-421.72Z"/>
      <path class="cls-1" d="M371.69,153.48l-16.52,2.66c-.73,3.59-1.66,7.19-2.32,10.82-7.89,42.96-17.35,140.19-12.37,181.87,2.57,21.54,33.46,41.26,52.92,45.73l-7.18,152.83c-44.14,14.69-97.24,20.27-141.5,4.45l-8.51-170.82c47.31-11.68,69.94-58.82,72.86-104.43,5.53-86.42-85-173.37-154.26-87.19-46.27,57.57-31.05,171.18,46.9,193.18l-7.35,154.27C28.76,459.83-2.41,231.7,135.62,110.29,266.43-4.78,470.6,41.22,539.83,199.79c52.91,121.18,8.56,258.35-102.25,327.43-5.67.07-3.24-26.86-3.62-32.28-2.25-32.31-5.45-65.26-4.45-97.94,25.6-13.55,49.67-22.7,52.48-55.34,3.87-45.07-4.83-131.22-12.36-177.13-.59-3.62-1.72-7.18-2.36-10.78l-11.73-.26v172.52c-5.47.33-13.12,3.78-16.77-1.2v-171.32h-16.77v172.52c-5.47.33-13.12,3.78-16.77-1.2v-168.92h-16.77v164.13c0,.95-.57,5.78-1.33,6.19-5.12.41-12.14,3.35-15.45-1.39v-171.32Z"/>
      <path class="cls-1" d="M194.37,359.53c-49.88-18.11-63.22-92.7-29.94-131.72,5.39,3.53,2,4.63,1.48,8.57-5.13,38.73-7.31,59.46,11.28,96.03,2.01,3.96,18.76,25.62,17.18,27.12Z"/>
    </g>
  </g>
</svg>